<svg xmlns="http://www.w3.org/2000/svg" xmlns:xlink="http://www.w3.org/1999/xlink" width="200" zoomAndPan="magnify" viewBox="0 0 150 74.999997" height="100" preserveAspectRatio="xMidYMid meet" version="1.0"><defs><clipPath id="782af8ba00"><path d="M 1.757812 1.757812 L 110.621094 1.757812 L 110.621094 73.242188 L 1.757812 73.242188 Z M 1.757812 1.757812 " clip-rule="nonzero"/></clipPath><clipPath id="baa13f46ad"><path d="M 9.636719 12.621094 C 11.058594 22.847656 12.230469 24.949219 13.210938 26.515625 C 13.992188 27.738281 14.578125 28.523438 15.703125 29.550781 C 17.320312 31.019531 20.5 33.074219 22.457031 33.953125 C 23.824219 34.539062 24.902344 34.734375 26.125 34.929688 C 27.300781 35.078125 28.472656 35.128906 29.597656 35.03125 C 30.722656 34.929688 31.847656 34.785156 32.925781 34.441406 C 34.050781 34.101562 34.882812 33.707031 36.203125 32.875 C 38.699219 31.359375 43.445312 27.835938 46.183594 25.246094 C 48.433594 23.09375 50.488281 20.644531 51.761719 18.738281 C 52.640625 17.464844 53.035156 16.632812 53.570312 15.265625 C 54.257812 13.503906 54.941406 11.058594 55.136719 8.953125 C 55.285156 6.945312 55.527344 3.621094 54.695312 2.984375 C 54.160156 2.59375 53.035156 2.984375 52.300781 3.375 C 51.417969 3.863281 50.832031 4.695312 49.902344 5.917969 C 48.09375 8.367188 45.304688 13.503906 43.25 18.003906 C 40.851562 23.335938 38.746094 30.96875 36.742188 35.957031 C 35.273438 39.578125 34.148438 42.171875 32.535156 45.253906 C 30.871094 48.484375 28.667969 52.152344 26.859375 54.890625 C 25.441406 56.996094 24.21875 58.609375 22.847656 60.324219 C 21.527344 61.9375 20.253906 63.453125 18.835938 64.871094 C 17.417969 66.292969 15.851562 67.660156 14.335938 68.785156 C 12.964844 69.8125 11.449219 70.792969 10.128906 71.476562 C 9.003906 72.066406 7.925781 72.554688 6.945312 72.75 C 6.164062 72.894531 5.332031 72.992188 4.695312 72.699219 C 4.0625 72.40625 3.523438 71.820312 3.132812 70.988281 C 2.398438 69.472656 2.105469 66.339844 1.957031 63.746094 C 1.808594 60.859375 2.203125 56.996094 2.542969 54.453125 C 2.789062 52.691406 3.035156 51.664062 3.472656 49.949219 C 4.0625 47.699219 4.988281 44.128906 5.820312 42.074219 C 6.359375 40.703125 6.800781 39.871094 7.535156 38.746094 C 8.367188 37.476562 9.539062 35.664062 10.664062 34.832031 C 11.546875 34.199219 12.523438 33.707031 13.550781 33.757812 C 14.773438 33.804688 15.800781 34.589844 17.464844 35.617188 C 21.183594 37.964844 28.914062 45.15625 34.003906 48.921875 C 38.160156 52.007812 42.125 54.695312 45.597656 56.800781 C 48.238281 58.414062 49.902344 59.34375 52.886719 60.761719 C 57.191406 62.816406 64.382812 65.898438 69.277344 67.5625 C 73.09375 68.882812 76.273438 69.714844 79.746094 70.402344 C 83.121094 71.085938 86.644531 71.476562 89.773438 71.769531 C 92.515625 72.015625 95.109375 72.113281 97.457031 72.066406 C 99.460938 72.015625 101.371094 71.820312 102.984375 71.527344 C 104.304688 71.28125 105.382812 71.085938 106.507812 70.644531 C 107.632812 70.207031 109.199219 68.980469 109.832031 68.980469 C 110.078125 68.980469 110.324219 69.082031 110.371094 69.226562 C 110.421875 69.375 110.324219 69.863281 110.175781 69.910156 C 110.03125 69.960938 109.539062 69.765625 109.492188 69.617188 C 109.441406 69.472656 109.636719 69.03125 109.785156 68.980469 C 109.929688 68.933594 110.46875 69.375 110.421875 69.617188 C 110.324219 70.15625 108.316406 71.039062 106.75 71.574219 C 104.402344 72.359375 100.441406 72.847656 97.457031 73.042969 C 94.765625 73.191406 92.417969 72.992188 89.628906 72.75 C 86.449219 72.457031 82.875 72.015625 79.5 71.332031 C 75.976562 70.597656 72.796875 69.8125 68.933594 68.492188 C 63.992188 66.78125 56.75 63.699219 52.398438 61.59375 C 49.414062 60.175781 47.75 59.246094 45.058594 57.632812 C 41.585938 55.527344 37.523438 52.789062 33.367188 49.707031 C 28.277344 45.9375 20.402344 38.746094 16.925781 36.449219 C 15.460938 35.46875 14.628906 34.734375 13.601562 34.6875 C 12.769531 34.636719 12.085938 34.980469 11.351562 35.519531 C 10.324219 36.253906 9.148438 38.015625 8.367188 39.238281 C 7.679688 40.3125 7.289062 41.046875 6.75 42.367188 C 5.96875 44.375 4.941406 47.894531 4.402344 50.148438 C 3.960938 51.808594 3.765625 52.789062 3.523438 54.550781 C 3.179688 57.046875 2.835938 60.859375 2.933594 63.648438 C 3.035156 66.097656 3.375 69.082031 3.914062 70.449219 C 4.207031 71.136719 4.5 71.625 4.941406 71.867188 C 5.382812 72.113281 6.019531 72.015625 6.652344 71.867188 C 7.535156 71.671875 8.609375 71.183594 9.636719 70.644531 C 10.910156 69.960938 12.328125 69.03125 13.648438 68.054688 C 15.117188 66.925781 16.488281 65.898438 18.101562 64.238281 C 20.449219 61.789062 23.921875 57.289062 26.027344 54.402344 C 27.59375 52.25 28.523438 50.734375 29.746094 48.582031 C 31.164062 46.136719 32.339844 43.882812 33.855469 40.410156 C 36.300781 34.785156 39.433594 23.921875 42.367188 17.5625 C 44.570312 12.769531 47.210938 7.925781 49.121094 5.332031 C 50.148438 3.960938 51.078125 3.035156 51.859375 2.496094 C 52.300781 2.203125 52.59375 2.054688 53.035156 1.957031 C 53.621094 1.859375 54.648438 1.761719 55.136719 2.152344 C 55.675781 2.542969 55.820312 3.523438 56.019531 4.453125 C 56.261719 5.722656 56.3125 7.4375 56.117188 9.101562 C 55.871094 11.105469 55.136719 13.84375 54.453125 15.703125 C 53.914062 17.125 53.472656 18.003906 52.542969 19.324219 C 51.222656 21.28125 48.921875 23.921875 46.820312 25.976562 C 44.714844 28.035156 41.925781 30.285156 40.019531 31.652344 C 38.746094 32.582031 37.816406 33.121094 36.644531 33.757812 C 35.46875 34.394531 34.296875 34.980469 33.074219 35.371094 C 31.945312 35.714844 30.773438 35.910156 29.597656 36.007812 C 28.375 36.105469 27.105469 36.058594 25.878906 35.859375 C 24.558594 35.664062 23.386719 35.46875 21.964844 34.832031 C 19.910156 33.902344 16.585938 31.652344 14.921875 30.136719 C 13.746094 29.0625 13.160156 28.277344 12.378906 27.007812 C 11.351562 25.34375 10.128906 22.554688 9.539062 20.890625 C 9.148438 19.765625 9.003906 19.128906 8.855469 18.003906 C 8.660156 16.488281 8.316406 13.257812 8.660156 12.523438 C 8.804688 12.28125 9.050781 12.132812 9.199219 12.132812 C 9.34375 12.132812 9.636719 12.621094 9.636719 12.621094 " clip-rule="nonzero"/></clipPath><clipPath id="33bdddcc96"><path d="M 75 9.027344 L 147.335938 9.027344 L 147.335938 56.726562 L 75 56.726562 Z M 75 9.027344 " clip-rule="nonzero"/></clipPath><clipPath id="1ac1d239fd"><path d="M 108.757812 10.421875 C 102.152344 10.566406 99.902344 11.007812 98.140625 11.691406 C 96.527344 12.28125 94.960938 13.160156 93.738281 14.089844 C 92.660156 14.921875 91.78125 15.800781 90.996094 16.976562 C 90.070312 18.347656 89.089844 20.402344 88.699219 21.867188 C 88.40625 22.945312 88.355469 23.777344 88.453125 24.753906 C 88.550781 25.734375 88.894531 26.808594 89.382812 27.691406 C 89.871094 28.621094 90.605469 29.5 91.390625 30.234375 C 92.171875 30.96875 93.199219 31.605469 94.128906 32.046875 C 95.011719 32.484375 95.890625 32.777344 96.867188 32.925781 C 97.992188 33.074219 99.949219 32.4375 100.539062 32.730469 C 100.832031 32.875 101.027344 33.21875 100.976562 33.367188 C 100.832031 33.660156 99.414062 33.464844 98.238281 33.707031 C 96.136719 34.148438 91.925781 35.46875 89.382812 36.449219 C 87.425781 37.183594 85.859375 37.867188 84.246094 38.796875 C 82.582031 39.726562 80.820312 40.949219 79.550781 42.125 C 78.472656 43.101562 77.445312 44.128906 76.859375 45.207031 C 76.371094 46.085938 75.929688 47.113281 75.976562 47.992188 C 76.027344 48.824219 76.371094 49.707031 76.957031 50.441406 C 77.691406 51.320312 78.960938 52.007812 80.234375 52.640625 C 81.75 53.375 83.414062 53.914062 85.519531 54.355469 C 88.40625 54.941406 92.320312 55.136719 96.039062 55.332031 C 100.195312 55.527344 104.988281 55.578125 109.296875 55.382812 C 113.355469 55.1875 117.320312 54.84375 121.085938 54.257812 C 124.65625 53.71875 128.277344 52.933594 131.359375 52.105469 C 133.953125 51.417969 136.398438 50.585938 138.40625 49.753906 C 140.019531 49.070312 141.535156 48.335938 142.660156 47.554688 C 143.542969 46.917969 144.226562 46.332031 144.863281 45.597656 C 145.5 44.863281 145.890625 43.394531 146.378906 43.152344 C 146.625 43.003906 147.015625 43.054688 147.113281 43.199219 C 147.210938 43.347656 147.164062 43.835938 147.015625 43.933594 C 146.867188 44.03125 146.28125 43.785156 146.234375 43.640625 C 146.183594 43.492188 146.476562 43.054688 146.625 43.054688 C 146.769531 43.054688 147.164062 43.445312 147.164062 43.738281 C 147.210938 44.324219 146.183594 45.5 145.5 46.28125 C 144.8125 47.066406 144.082031 47.75 143.101562 48.433594 C 141.878906 49.265625 140.363281 50 138.699219 50.683594 C 136.644531 51.566406 134.199219 52.347656 131.554688 53.082031 C 128.425781 53.914062 124.753906 54.695312 121.136719 55.234375 C 117.320312 55.820312 113.355469 56.164062 109.296875 56.359375 C 104.988281 56.554688 100.148438 56.507812 95.9375 56.3125 C 92.171875 56.117188 88.160156 55.917969 85.226562 55.285156 C 83.074219 54.84375 81.3125 54.304688 79.695312 53.472656 C 78.277344 52.738281 76.859375 51.859375 76.078125 50.832031 C 75.441406 49.949219 75.050781 48.875 75.050781 47.847656 C 75.050781 46.769531 75.539062 45.597656 76.125 44.570312 C 76.808594 43.394531 77.835938 42.320312 79.011719 41.292969 C 80.332031 40.070312 82.144531 38.894531 83.804688 37.914062 C 85.46875 36.9375 87.085938 36.300781 89.089844 35.519531 C 91.683594 34.539062 96.136719 33.023438 98.191406 32.730469 C 99.21875 32.582031 100.097656 32.484375 100.539062 32.730469 C 100.78125 32.875 101.027344 33.171875 100.976562 33.367188 C 100.878906 33.660156 99.65625 34 98.777344 34.050781 C 97.40625 34.101562 95.011719 33.511719 93.589844 32.875 C 92.417969 32.339844 91.488281 31.652344 90.605469 30.820312 C 89.773438 30.039062 88.992188 29.0625 88.453125 28.035156 C 87.914062 27.007812 87.574219 25.78125 87.476562 24.65625 C 87.378906 23.628906 87.476562 22.699219 87.769531 21.574219 C 88.210938 20.058594 89.285156 17.855469 90.265625 16.390625 C 91.097656 15.167969 91.976562 14.1875 93.152344 13.308594 C 94.472656 12.28125 96.183594 11.398438 97.894531 10.761719 C 99.753906 10.078125 102.054688 9.589844 103.960938 9.394531 C 105.675781 9.199219 108.074219 9.101562 108.804688 9.441406 C 109.101562 9.589844 109.246094 9.882812 109.246094 10.03125 C 109.246094 10.175781 108.757812 10.421875 108.757812 10.421875 " clip-rule="nonzero"/></clipPath><clipPath id="95d6794cb1"><path d="M 40.660156 43.382812 L 96.523438 43.382812 L 96.523438 69.730469 L 40.660156 69.730469 Z M 40.660156 43.382812 " clip-rule="nonzero"/></clipPath><clipPath id="2b7512ea00"><path d="M 41.046875 52.054688 C 44.277344 50.097656 46.28125 47.457031 46.722656 47.601562 C 46.917969 47.652344 46.964844 48.335938 46.867188 48.386719 C 46.769531 48.433594 46.136719 47.847656 46.183594 47.75 C 46.234375 47.652344 46.671875 47.601562 46.820312 47.699219 C 46.964844 47.796875 47.015625 48.191406 46.917969 48.433594 C 46.722656 48.921875 45.402344 49.460938 45.058594 50.148438 C 44.714844 50.78125 44.519531 51.90625 44.8125 52.398438 C 45.058594 52.789062 45.644531 52.886719 46.183594 52.984375 C 46.964844 53.082031 48.238281 53.035156 49.21875 52.640625 C 50.292969 52.25 51.175781 51.46875 52.347656 50.441406 C 54.160156 48.875 57.925781 43.445312 58.660156 43.589844 C 58.855469 43.640625 59.003906 44.03125 58.953125 44.324219 C 58.757812 45.207031 55.773438 47.210938 54.597656 48.582031 C 53.621094 49.707031 52.738281 50.878906 52.25 51.90625 C 51.859375 52.640625 51.613281 53.277344 51.566406 54.011719 C 51.515625 54.746094 51.417969 55.722656 51.90625 56.214844 C 52.542969 56.898438 54.597656 57.046875 55.722656 56.996094 C 56.652344 56.945312 57.242188 56.800781 58.21875 56.164062 C 60.226562 54.84375 65.070312 47.457031 65.851562 47.601562 C 66.046875 47.652344 66.144531 47.992188 66.097656 48.386719 C 65.898438 49.804688 60.859375 55.917969 60.128906 57.925781 C 59.832031 58.757812 59.589844 59.492188 59.882812 59.832031 C 60.175781 60.175781 61.15625 60.078125 61.839844 59.980469 C 62.621094 59.882812 63.355469 59.636719 64.238281 59.199219 C 65.507812 58.511719 67.855469 55.773438 68.445312 55.917969 C 68.6875 55.96875 68.785156 56.261719 68.785156 56.554688 C 68.785156 57.242188 67.074219 59.050781 66.828125 60.128906 C 66.632812 60.957031 66.683594 61.886719 66.925781 62.476562 C 67.074219 62.914062 67.269531 63.257812 67.757812 63.453125 C 68.738281 63.894531 71.867188 63.796875 73.238281 63.257812 C 74.265625 62.867188 75.390625 61.9375 75.636719 61.300781 C 75.78125 60.957031 75.734375 60.46875 75.488281 60.273438 C 75.195312 60.03125 74.121094 60.078125 73.726562 60.421875 C 73.289062 60.761719 72.992188 62.183594 73.238281 62.523438 C 73.433594 62.816406 73.972656 62.867188 74.414062 62.769531 C 75.097656 62.621094 76.46875 61.007812 76.808594 61.253906 C 77.203125 61.496094 76.027344 64.1875 76.273438 64.675781 C 76.371094 64.871094 76.613281 64.96875 76.859375 64.96875 C 77.347656 65.019531 78.132812 64.675781 78.914062 64.285156 C 80.136719 63.699219 82.4375 61.203125 83.316406 61.300781 C 83.757812 61.351562 84.050781 61.839844 84.246094 62.230469 C 84.441406 62.71875 84.34375 63.40625 84.296875 64.1875 C 84.199219 65.410156 84.050781 68.347656 83.511719 68.882812 C 83.269531 69.128906 82.777344 69.179688 82.679688 69.03125 C 82.484375 68.785156 83.855469 66.878906 84.589844 65.949219 C 85.273438 65.070312 86.253906 63.648438 86.9375 63.601562 C 87.425781 63.550781 87.867188 64.089844 88.210938 64.628906 C 88.699219 65.460938 88.210938 67.855469 89.042969 68.542969 C 89.921875 69.277344 92.320312 68.6875 93.542969 68.542969 C 94.421875 68.445312 95.351562 67.808594 95.839844 67.953125 C 96.136719 68.003906 96.429688 68.347656 96.429688 68.492188 C 96.429688 68.640625 95.792969 68.933594 95.695312 68.835938 C 95.597656 68.738281 95.695312 68.003906 95.792969 67.953125 C 95.890625 67.90625 96.429688 68.492188 96.332031 68.738281 C 96.183594 69.128906 94.667969 69.375 93.589844 69.519531 C 92.222656 69.714844 89.578125 69.714844 88.746094 69.421875 C 88.453125 69.324219 88.355469 69.277344 88.160156 68.980469 C 87.71875 68.296875 87.914062 64.726562 87.183594 64.53125 C 86.300781 64.285156 83.511719 69.421875 82.875 69.128906 C 82.242188 68.835938 84.441406 62.769531 83.5625 62.230469 C 82.679688 61.644531 78.863281 65.605469 77.496094 65.851562 C 76.90625 65.949219 76.46875 65.851562 76.078125 65.605469 C 75.734375 65.410156 75.390625 65.070312 75.292969 64.628906 C 75.148438 63.84375 75.832031 61.496094 76.273438 61.203125 C 76.417969 61.105469 76.710938 61.15625 76.808594 61.253906 C 76.90625 61.398438 76.957031 61.742188 76.859375 61.984375 C 76.710938 62.378906 75.929688 63.015625 75.488281 63.308594 C 75.148438 63.550781 74.804688 63.699219 74.414062 63.746094 C 73.921875 63.796875 73.09375 63.796875 72.75 63.40625 C 72.308594 62.964844 72.113281 61.546875 72.261719 60.910156 C 72.359375 60.46875 72.652344 60.175781 72.945312 59.882812 C 73.238281 59.636719 73.628906 59.394531 74.023438 59.296875 C 74.511719 59.199219 75.246094 59.199219 75.734375 59.34375 C 76.125 59.492188 76.566406 59.6875 76.710938 60.03125 C 76.90625 60.371094 76.90625 60.859375 76.710938 61.351562 C 76.417969 62.085938 75.292969 63.257812 74.414062 63.796875 C 73.628906 64.285156 72.796875 64.53125 71.769531 64.628906 C 70.449219 64.773438 68.003906 64.628906 67.074219 64.140625 C 66.585938 63.894531 66.339844 63.550781 66.144531 63.0625 C 65.851562 62.425781 65.753906 61.253906 65.800781 60.421875 C 65.851562 59.636719 65.996094 58.953125 66.390625 58.269531 C 66.828125 57.4375 68.152344 55.820312 68.445312 55.917969 C 68.589844 55.96875 68.6875 56.554688 68.542969 56.945312 C 68.199219 57.730469 66.242188 59.199219 65.019531 59.882812 C 63.992188 60.46875 62.816406 60.8125 61.839844 60.957031 C 61.007812 61.058594 59.929688 61.15625 59.441406 60.8125 C 59.050781 60.566406 58.953125 59.980469 58.902344 59.492188 C 58.855469 58.953125 58.902344 58.414062 59.199219 57.632812 C 59.882812 55.820312 62.867188 51.027344 64.1875 49.316406 C 64.824219 48.484375 65.558594 47.554688 65.851562 47.601562 C 66.046875 47.652344 66.144531 48.042969 66.097656 48.386719 C 65.949219 49.363281 63.796875 51.808594 62.523438 53.277344 C 61.300781 54.648438 59.929688 56.214844 58.660156 56.996094 C 57.679688 57.582031 56.800781 57.925781 55.722656 57.972656 C 54.5 58.074219 52.496094 57.777344 51.664062 57.144531 C 51.027344 56.652344 50.683594 55.871094 50.585938 55.089844 C 50.441406 54.0625 50.78125 52.738281 51.320312 51.515625 C 52.007812 50 53.523438 48.289062 54.792969 46.917969 C 55.96875 45.644531 58.121094 43.445312 58.660156 43.589844 C 58.855469 43.640625 59.003906 43.980469 58.953125 44.324219 C 58.855469 45.109375 57.09375 46.769531 56.066406 47.945312 C 55.089844 49.070312 54.0625 50.246094 52.984375 51.175781 C 51.90625 52.105469 50.832031 53.132812 49.609375 53.570312 C 48.484375 54.011719 46.964844 54.109375 45.988281 53.914062 C 45.207031 53.765625 44.324219 53.375 43.980469 52.789062 C 43.640625 52.152344 43.738281 50.929688 44.03125 50.148438 C 44.324219 49.363281 45.109375 48.386719 45.644531 47.992188 C 45.988281 47.75 46.429688 47.503906 46.625 47.601562 C 46.820312 47.699219 46.964844 48.386719 46.917969 48.433594 C 46.867188 48.484375 46.085938 47.894531 46.136719 47.75 C 46.183594 47.652344 46.625 47.503906 46.722656 47.601562 C 46.867188 47.75 46.820312 48.335938 46.625 48.777344 C 46.234375 49.609375 44.667969 51.027344 43.6875 51.761719 C 42.90625 52.347656 41.925781 52.984375 41.390625 52.984375 C 41.097656 52.984375 40.800781 52.789062 40.753906 52.640625 C 40.703125 52.496094 41.046875 52.054688 41.046875 52.054688 " clip-rule="nonzero"/></clipPath><clipPath id="7c685cdb70"><path d="M 47.253906 44.5625 L 48.246094 44.5625 L 48.246094 45.566406 L 47.253906 45.566406 Z M 47.253906 44.5625 " clip-rule="nonzero"/></clipPath><clipPath id="a6557eb72d"><path d="M 48.238281 44.910156 C 47.796875 45.546875 47.457031 45.449219 47.359375 45.304688 C 47.261719 45.15625 47.308594 44.765625 47.457031 44.667969 C 47.601562 44.570312 48.09375 44.714844 48.09375 44.714844 " clip-rule="nonzero"/></clipPath><clipPath id="be9f8f439e"><path d="M 68.097656 53.222656 L 69.136719 53.222656 L 69.136719 54.226562 L 68.097656 54.226562 Z M 68.097656 53.222656 " clip-rule="nonzero"/></clipPath><clipPath id="a13af46cd6"><path d="M 69.128906 53.570312 C 68.6875 54.207031 68.296875 54.160156 68.199219 54.011719 C 68.101562 53.863281 68.199219 53.425781 68.347656 53.328125 C 68.492188 53.230469 68.980469 53.375 68.980469 53.375 " clip-rule="nonzero"/></clipPath><clipPath id="4ef3cffbb2"><path d="M 86.101562 42.148438 L 135.914062 42.148438 L 135.914062 55 L 86.101562 55 Z M 86.101562 42.148438 " clip-rule="nonzero"/></clipPath><clipPath id="34ce45c0c5"><path d="M 89.871094 46.476562 C 89.824219 53.472656 89.382812 53.472656 89.238281 53.328125 C 89.042969 53.132812 89.53125 52.25 89.285156 51.90625 C 89.042969 51.515625 87.914062 51.125 87.621094 51.273438 C 87.378906 51.417969 87.28125 52.105469 87.378906 52.445312 C 87.476562 52.738281 87.671875 52.984375 88.015625 53.230469 C 88.503906 53.570312 89.628906 54.011719 90.265625 53.960938 C 90.753906 53.914062 91.097656 53.667969 91.488281 53.375 C 91.925781 53.035156 92.269531 52.105469 92.710938 51.808594 C 93.054688 51.613281 93.394531 51.46875 93.738281 51.566406 C 94.277344 51.710938 94.8125 52.984375 95.449219 53.230469 C 95.988281 53.472656 96.722656 53.472656 97.210938 53.277344 C 97.75 53.082031 98.140625 52.054688 98.582031 51.90625 C 98.921875 51.808594 99.21875 51.90625 99.558594 52.054688 C 100.148438 52.300781 100.832031 53.375 101.515625 53.667969 C 102.152344 53.914062 102.984375 54.011719 103.570312 53.765625 C 104.160156 53.523438 104.453125 52.203125 104.988281 52.152344 C 105.625 52.105469 106.507812 53.71875 107.242188 53.960938 C 107.777344 54.109375 108.316406 53.960938 108.855469 53.816406 C 109.394531 53.667969 110.371094 53.375 110.421875 53.082031 C 110.46875 52.835938 109.734375 52.203125 109.6875 52.203125 C 109.636719 52.203125 110.03125 53.132812 110.324219 53.277344 C 110.617188 53.425781 110.957031 53.375 111.351562 53.230469 C 112.230469 52.886719 114.1875 50.34375 114.921875 50.195312 C 115.214844 50.148438 115.507812 50.292969 115.558594 50.441406 C 115.605469 50.585938 115.3125 51.125 115.3125 51.125 C 115.3125 51.125 115.507812 50.539062 115.605469 50.539062 C 115.851562 50.539062 115.898438 52.300781 116.488281 52.738281 C 117.171875 53.230469 118.738281 53.179688 119.667969 52.984375 C 120.5 52.835938 121.769531 52.347656 121.964844 51.90625 C 122.066406 51.664062 121.867188 51.078125 121.769531 51.078125 C 121.722656 51.078125 121.527344 51.515625 121.574219 51.566406 C 121.625 51.613281 121.917969 51.515625 122.113281 51.371094 C 122.40625 51.175781 122.652344 50.929688 122.992188 50.390625 C 123.875 49.070312 125.976562 42.515625 126.613281 42.464844 C 126.808594 42.464844 127.003906 42.757812 127.003906 43.003906 C 127.054688 43.542969 125.832031 44.617188 125.390625 45.742188 C 124.804688 47.308594 123.582031 50.929688 124.21875 51.710938 C 124.65625 52.203125 126.078125 52.007812 126.90625 51.613281 C 127.886719 51.125 128.914062 48.433594 129.5 48.433594 C 129.792969 48.433594 130.039062 48.972656 130.136719 49.363281 C 130.234375 49.949219 130.039062 51.175781 129.597656 51.664062 C 129.207031 52.105469 128.230469 52.347656 127.738281 52.347656 C 127.398438 52.347656 126.859375 52.152344 126.808594 51.957031 C 126.761719 51.808594 126.957031 51.515625 127.25 51.371094 C 127.835938 51.078125 129.84375 51.90625 130.96875 51.613281 C 132.046875 51.320312 133.21875 50.539062 133.855469 49.804688 C 134.394531 49.167969 134.394531 47.75 134.785156 47.601562 C 135.03125 47.503906 135.617188 47.894531 135.617188 48.042969 C 135.617188 48.140625 135.03125 48.433594 134.882812 48.335938 C 134.734375 48.238281 134.6875 47.699219 134.785156 47.601562 C 134.882812 47.503906 135.519531 47.601562 135.617188 47.796875 C 135.8125 48.09375 135.46875 49.023438 135.078125 49.65625 C 134.492188 50.539062 133.023438 51.761719 132.046875 52.25 C 131.3125 52.640625 130.675781 52.738281 129.890625 52.738281 C 129.011719 52.789062 127.300781 52.640625 126.957031 52.25 C 126.808594 52.054688 126.808594 51.710938 126.957031 51.515625 C 127.203125 51.125 128.71875 51.125 129.160156 50.585938 C 129.550781 50.097656 129.257812 48.53125 129.5 48.433594 C 129.648438 48.386719 130.039062 48.679688 130.089844 48.875 C 130.136719 49.121094 129.988281 49.460938 129.746094 49.804688 C 129.304688 50.539062 128.179688 52.152344 127.105469 52.542969 C 126.078125 52.933594 124.070312 52.886719 123.53125 52.347656 C 123.140625 52.007812 123.238281 51.320312 123.289062 50.585938 C 123.335938 49.316406 123.824219 47.015625 124.460938 45.546875 C 125.050781 44.277344 126.222656 42.417969 126.761719 42.222656 C 126.957031 42.171875 127.203125 42.269531 127.300781 42.417969 C 127.496094 42.710938 127.203125 43.542969 126.90625 44.375 C 126.371094 45.988281 124.753906 50 123.582031 51.320312 C 122.945312 52.054688 122.113281 52.542969 121.625 52.59375 C 121.378906 52.59375 121.136719 52.496094 120.988281 52.300781 C 120.742188 52.007812 120.449219 51.273438 120.597656 50.929688 C 120.742188 50.539062 121.429688 50.097656 121.820312 50.097656 C 122.210938 50.097656 122.75 50.34375 122.945312 50.683594 C 123.140625 51.027344 123.09375 51.710938 122.894531 52.152344 C 122.652344 52.640625 121.917969 53.132812 121.332031 53.425781 C 120.742188 53.71875 120.058594 53.914062 119.277344 53.960938 C 118.296875 54.011719 116.683594 54.0625 115.898438 53.570312 C 115.265625 53.179688 114.773438 52.25 114.675781 51.613281 C 114.578125 51.125 114.773438 50.246094 114.921875 50.195312 C 115.070312 50.148438 115.507812 50.636719 115.507812 50.976562 C 115.460938 51.566406 113.941406 52.789062 113.160156 53.375 C 112.523438 53.816406 111.789062 54.257812 111.203125 54.304688 C 110.714844 54.355469 110.273438 54.207031 109.882812 54.011719 C 109.539062 53.816406 109.101562 53.425781 109 53.035156 C 108.902344 52.542969 109.148438 51.320312 109.492188 51.175781 C 109.785156 51.027344 110.566406 51.46875 110.859375 51.808594 C 111.105469 52.105469 111.300781 52.59375 111.253906 52.984375 C 111.203125 53.375 110.910156 53.816406 110.566406 54.109375 C 110.226562 54.402344 109.734375 54.550781 109.199219 54.695312 C 108.609375 54.84375 107.777344 55.039062 107.144531 54.84375 C 106.410156 54.648438 105.625 53.277344 105.039062 53.328125 C 104.550781 53.375 104.257812 54.402344 103.765625 54.648438 C 103.328125 54.84375 102.835938 54.84375 102.347656 54.792969 C 101.761719 54.746094 100.976562 54.597656 100.441406 54.257812 C 99.902344 53.914062 99.558594 52.59375 99.121094 52.59375 C 98.679688 52.59375 98.289062 53.816406 97.699219 54.109375 C 97.066406 54.402344 96.085938 54.453125 95.351562 54.207031 C 94.570312 53.914062 93.101562 52.398438 93.199219 52.203125 C 93.25 52.105469 93.6875 52.105469 93.738281 52.203125 C 93.835938 52.398438 93.101562 53.230469 92.613281 53.667969 C 92.027344 54.207031 91.046875 54.890625 90.214844 54.941406 C 89.335938 55.039062 88.015625 54.453125 87.378906 54.011719 C 86.886719 53.667969 86.546875 53.328125 86.398438 52.835938 C 86.203125 52.300781 86.351562 51.222656 86.59375 50.78125 C 86.789062 50.488281 87.035156 50.246094 87.425781 50.195312 C 88.0625 50.148438 89.871094 50.929688 90.214844 51.566406 C 90.460938 52.054688 90.214844 53.179688 89.96875 53.328125 C 89.773438 53.425781 89.285156 53.277344 89.089844 52.984375 C 88.503906 52.152344 88.601562 47.40625 88.894531 46.527344 C 88.992188 46.28125 89.089844 46.136719 89.238281 46.085938 C 89.382812 46.039062 89.871094 46.476562 89.871094 46.476562 " clip-rule="nonzero"/></clipPath></defs><g clip-path="url(#782af8ba00)"><g clip-path="url(#baa13f46ad)"><path fill="#443c32" d="M 0 0 L 112.378906 0 L 112.378906 75 L 0 75 Z M 0 0 " fill-opacity="1" fill-rule="nonzero"/></g></g><g clip-path="url(#33bdddcc96)"><g clip-path="url(#1ac1d239fd)"><path fill="#443c32" d="M 73.09375 7.4375 L 149.121094 7.4375 L 149.121094 58.316406 L 73.09375 58.316406 Z M 73.09375 7.4375 " fill-opacity="1" fill-rule="nonzero"/></g></g><g clip-path="url(#95d6794cb1)"><g clip-path="url(#2b7512ea00)"><path fill="#443c32" d="M 38.796875 41.632812 L 98.386719 41.632812 L 98.386719 71.476562 L 38.796875 71.476562 Z M 38.796875 41.632812 " fill-opacity="1" fill-rule="nonzero"/></g></g><g clip-path="url(#7c685cdb70)"><g clip-path="url(#a6557eb72d)"><path fill="#443c32" d="M 45.402344 42.710938 L 50.195312 42.710938 L 50.195312 47.457031 L 45.402344 47.457031 Z M 45.402344 42.710938 " fill-opacity="1" fill-rule="nonzero"/></g></g><g clip-path="url(#be9f8f439e)"><g clip-path="url(#a13af46cd6)"><path fill="#443c32" d="M 66.242188 51.371094 L 71.085938 51.371094 L 71.085938 56.117188 L 66.242188 56.117188 Z M 66.242188 51.371094 " fill-opacity="1" fill-rule="nonzero"/></g></g><g clip-path="url(#4ef3cffbb2)"><g clip-path="url(#34ce45c0c5)"><path fill="#443c32" d="M 84.441406 40.265625 L 137.574219 40.265625 L 137.574219 56.898438 L 84.441406 56.898438 Z M 84.441406 40.265625 " fill-opacity="1" fill-rule="nonzero"/></g></g></svg>